# xmcd
#
# Track frame offsets:
#	150
#	21471
#	49217
#	69162
#	89952
#	111104
#	134785
#	156926
#	182558
#	203050
#	226542
#	253698
#	277133
#	296357
#	316410
#
# Disc length: 4523 seconds
#
# Revision: 1
# Processed by: cddbd v1.5.1PL2 Copyright (c) Steve Scherf et al.
# Submitted via: audiograbber 1.82.01
#
DISCID=e111a90f
DTITLE= The Best Of Indians
DYEAR=2006
DGENRE=Tribal
TTITLE0=All The Pretty Things
TTITLE1=Relampago
TTITLE2=Beautiful She Becomes
TTITLE3=Sweet Lullaby
TTITLE4=My Music My Passion
TTITLE5=Ananau
TTITLE6=Walk In Beauty
TTITLE7=Nuur El Ab
TTITLE8=Night Song
TTITLE9=Tatanka
TTITLE10=Dance
TTITLE11=Onon Mweng
TTITLE12=Raindance
TTITLE13=Red Storm Rising
TTITLE14=Dancing Spirit
EXTD=
EXTT0=
EXTT1=
EXTT2=
EXTT3=
EXTT4=
EXTT5=
EXTT6=
EXTT7=
EXTT8=
EXTT9=
EXTT10=
EXTT11=
EXTT12=
EXTT13=
EXTT14=
PLAYORDER=
